<svg xmlns="http://www.w3.org/2000/svg" viewBox="0 0 39.56 39.56"><defs><style>.cls-1{fill:none;stroke:#78838C;stroke-miterlimit:10;stroke-width:1.5px;}.cls-2{fill:#78838C;}</style></defs><title>FB</title><g id="Capa_2" data-name="Capa 2"><g id="Capa_1-2" data-name="Capa 1"><path class="cls-1" d="M19.78.75h0a19,19,0,0,1,19,19h0a19,19,0,0,1-19,19h0a19,19,0,0,1-19-19h0A19,19,0,0,1,19.78.75Z"/><path class="cls-2" d="M16.88,31.28h4.63V19.68h3.24l.34-3.88H21.51V13.59c0-.92.19-1.28,1.07-1.28h2.51v-4H21.88c-3.44,0-5,1.52-5,4.42v3.1H14.47v3.93h2.41Z"/></g></g></svg>