<svg xmlns="http://www.w3.org/2000/svg" viewBox="0 0 39.5 39.5"><defs><style>.cls-1{fill:none;stroke:#78838C;stroke-miterlimit:10;stroke-width:1.5px;}.cls-2{fill:#78838C;}</style></defs><title>IG</title><g id="Capa_2" data-name="Capa 2"><g id="Capa_1-2" data-name="Capa 1"><path class="cls-1" d="M19.75,38.75h0a19,19,0,0,1-19-19h0a19,19,0,0,1,19-19h0a19,19,0,0,1,19,19h0A19,19,0,0,1,19.75,38.75Z"/><path class="cls-2" d="M19.75,11.17c2.78,0,3.11,0,4.21.06a5.38,5.38,0,0,1,1.94.36,3.46,3.46,0,0,1,2,2,5.79,5.79,0,0,1,.36,1.93c0,1.1.06,1.43.06,4.22s0,3.12-.06,4.22a5.79,5.79,0,0,1-.36,1.93,3.45,3.45,0,0,1-2,2,5.38,5.38,0,0,1-1.94.36c-1.1.05-1.43.06-4.21.06s-3.12,0-4.22-.06a5.38,5.38,0,0,1-1.94-.36,3.16,3.16,0,0,1-1.2-.78,3.28,3.28,0,0,1-.78-1.2,5.88,5.88,0,0,1-.38-1.95c0-1.1-.06-1.43-.06-4.22s0-3.12.06-4.22a5.79,5.79,0,0,1,.36-1.93,3.45,3.45,0,0,1,2-2,5.38,5.38,0,0,1,1.94-.36c1.1,0,1.43-.06,4.22-.06m0-1.88c-2.84,0-3.19,0-4.31.06a7.83,7.83,0,0,0-2.53.48A5.21,5.21,0,0,0,11.06,11a5.07,5.07,0,0,0-1.2,1.9,7.57,7.57,0,0,0-.48,2.53c-.06,1.11-.07,1.47-.07,4.3s0,3.19.07,4.3a7.83,7.83,0,0,0,.48,2.54,5.1,5.1,0,0,0,1.2,1.84,5.21,5.21,0,0,0,1.85,1.21,7.83,7.83,0,0,0,2.53.48c1.12.05,1.47.06,4.31.06s3.19,0,4.3-.06a7.57,7.57,0,0,0,2.53-.48,5.37,5.37,0,0,0,3.05-3.05,7.59,7.59,0,0,0,.49-2.54c0-1.11.06-1.47.06-4.3s0-3.19-.06-4.3a7.53,7.53,0,0,0-.49-2.53,5.06,5.06,0,0,0-1.2-1.85,5,5,0,0,0-1.89-1.26A7.83,7.83,0,0,0,24,9.35c-1.11,0-1.47-.06-4.3-.06"/><path class="cls-2" d="M19.75,14.36a5.36,5.36,0,1,0,5.35,5.37h0a5.36,5.36,0,0,0-5.35-5.36m0,8.84a3.48,3.48,0,1,1,3.47-3.49h0a3.48,3.48,0,0,1-3.47,3.48"/><path class="cls-2" d="M26.54,14.15a1.26,1.26,0,0,1-1.21,1.31,1.26,1.26,0,1,1-.1-2.52h.09a1.26,1.26,0,0,1,1.22,1.21"/></g></g></svg>