<svg xmlns="http://www.w3.org/2000/svg" viewBox="0 0 39.5 39.5"><defs><style>.cls-1{fill:none;stroke:#78838C;stroke-miterlimit:10;stroke-width:1.5px;}.cls-2{fill:#78838C;}</style></defs><title>VIMEO</title><g id="Capa_2" data-name="Capa 2"><g id="Capa_1-2" data-name="Capa 1"><path class="cls-1" d="M19.75,38.75h0a19,19,0,0,1-19-19h0a19,19,0,0,1,19-19h0a19,19,0,0,1,19,19h0A19,19,0,0,1,19.75,38.75Z"/><path class="cls-2" d="M27.4,10.39c-3-.1-5,1.59-6.08,5.06a4.13,4.13,0,0,1,1.59-.35c1.1,0,1.59.62,1.46,1.85a8.51,8.51,0,0,1-1.46,3.26c-.9,1.43-1.58,2.14-2,2.14s-1.12-1.1-1.6-3.3q-.24-1-.87-5c-.39-2.46-1.42-3.6-3.1-3.44-.72.06-1.78.71-3.2,1.94L9,15.41l1,1.3a7.1,7.1,0,0,1,1.7-1c.74,0,1.43,1.16,2.08,3.48l1.74,6.4c.87,2.32,1.94,3.48,3.19,3.48q3,0,7.45-5.72c2.84-3.66,4.31-6.53,4.4-8.64C30.66,11.94,29.61,10.45,27.4,10.39Z"/></g></g></svg>