<?xml version="1.0" encoding="utf-8"?>
<!-- Generator: Adobe Illustrator 24.0.0, SVG Export Plug-In . SVG Version: 6.00 Build 0)  -->
<svg version="1.1" id="Capa_1" xmlns="http://www.w3.org/2000/svg" xmlns:xlink="http://www.w3.org/1999/xlink" x="0px" y="0px"
	 viewBox="10 10 203.5 141.7" style="enable-background:new 10 10 253.5 141.7;" xml:space="preserve">
<style type="text/css">
	.st0{fill:#FFFFFF;}
</style>
<g>
	<path class="st0" d="M233.1,70.5h-2.2v-2.2h1.9c0.2,0,0.3-0.1,0.3-0.3v-0.5c0-0.2-0.1-0.3-0.3-0.3h-1.9v-1.8h2.2
		c0.2,0,0.3-0.1,0.3-0.3v-0.5c0-0.2-0.1-0.3-0.3-0.3h-3.2c-0.2,0-0.3,0.1-0.3,0.3v6.7c0,0.2,0.1,0.3,0.3,0.3h3.2
		c0.2,0,0.3-0.1,0.3-0.3v-0.5C233.4,70.6,233.3,70.5,233.1,70.5z"/>
	<path class="st0" d="M203.1,70.5h-2.2v-2.2h1.9c0.2,0,0.3-0.1,0.3-0.3v-0.5c0-0.2-0.1-0.3-0.3-0.3h-1.9v-1.8h2.2
		c0.2,0,0.3-0.1,0.3-0.3v-0.5c0-0.2-0.1-0.3-0.3-0.3h-3.2c-0.2,0-0.3,0.1-0.3,0.3v6.7c0,0.2,0.1,0.3,0.3,0.3h3.2
		c0.2,0,0.3-0.1,0.3-0.3v-0.5C203.4,70.6,203.3,70.5,203.1,70.5z"/>
	<path class="st0" d="M243,67.9c0.7-0.1,0.9-0.6,0.9-1.3v-1c0-0.7-0.5-1.3-1.3-1.3h-0.7h-1.8c-0.2,0-0.3,0.1-0.3,0.3v6.7
		c0,0.2,0.1,0.3,0.3,0.3h0.7c0.2,0,0.3-0.1,0.3-0.3v-2.8h0.8h0.2c0.4,0,0.7,0.3,0.7,0.7v2.2c0,0.2,0.1,0.3,0.3,0.3h0.7
		c0.2,0,0.3-0.1,0.3-0.3v-2C244.1,68.7,243.9,68,243,67.9z M242.8,66.7c0,0.4-0.3,0.7-0.7,0.7h-0.2h-0.8v-2.1h0.8h0.2
		c0.4,0,0.7,0.3,0.7,0.7V66.7z"/>
	<path class="st0" d="M248.7,70.5h-2.3v-2.2h1.9c0.2,0,0.3-0.1,0.3-0.3v-0.5c0-0.2-0.1-0.3-0.3-0.3h-1.9v-1.8h2.2
		c0.2,0,0.3-0.1,0.3-0.3v-0.5c0-0.2-0.1-0.3-0.3-0.3h-3.2c-0.2,0-0.3,0.1-0.3,0.3v6.7c0,0.2,0.1,0.3,0.3,0.3h3.2
		c0.2,0,0.3-0.1,0.3-0.3v-0.5C249,70.6,248.8,70.5,248.7,70.5z"/>
	<path class="st0" d="M182.7,64.3h-3.6c-0.2,0-0.3,0.1-0.3,0.3v0.5c0,0.2,0.1,0.3,0.3,0.3h1.2v5.9c0,0.2,0.1,0.3,0.3,0.3h0.7
		c0.2,0,0.3-0.1,0.3-0.3v-5.9h1.2c0.2,0,0.3-0.1,0.3-0.3v-0.5C183,64.4,182.9,64.3,182.7,64.3z"/>
	<path class="st0" d="M192.1,67.9c0.7-0.1,0.9-0.6,0.9-1.3v-1c0-0.7-0.5-1.3-1.3-1.3H191h-1.8c-0.2,0-0.3,0.1-0.3,0.3v6.7
		c0,0.2,0.1,0.3,0.3,0.3h0.7c0.2,0,0.3-0.1,0.3-0.3v-2.8h0.8h0.2c0.4,0,0.7,0.3,0.7,0.7v2.2c0,0.2,0.1,0.3,0.3,0.3h0.7
		c0.2,0,0.3-0.1,0.3-0.3v-2C193.1,68.7,193,68,192.1,67.9z M191.9,66.7c0,0.4-0.3,0.7-0.7,0.7H191h-0.8v-2.1h0.8h0.2
		c0.4,0,0.7,0.3,0.7,0.7V66.7z"/>
	<path class="st0" d="M187.6,70.5h-2.3v-2.2h1.9c0.2,0,0.3-0.1,0.3-0.3v-0.5c0-0.2-0.1-0.3-0.3-0.3h-1.9v-1.8h2.2
		c0.2,0,0.3-0.1,0.3-0.3v-0.5c0-0.2-0.1-0.3-0.3-0.3h-3.2c-0.2,0-0.3,0.1-0.3,0.3v6.7c0,0.2,0.1,0.3,0.3,0.3h3.2
		c0.2,0,0.3-0.1,0.3-0.3v-0.5C187.8,70.6,187.7,70.5,187.6,70.5z"/>
	<path class="st0" d="M206.5,64.1c-1.3,0-2.1,0.8-2.1,2.1c0,0.6,0.1,1.2,0.8,1.6l1.6,1.1c0.4,0.2,0.6,0.4,0.6,0.8v0.2
		c0,0.6-0.3,0.9-0.9,0.9c-0.5,0-0.9-0.4-0.9-0.9v-0.4c0-0.2-0.1-0.3-0.3-0.3h-0.7c-0.2,0-0.3,0.1-0.3,0.3v0.4c0,1.3,0.9,2,2.1,2
		c1.3,0,2.1-0.7,2.1-2c0-1-0.1-1.4-0.9-1.9l-1.3-0.9c-0.5-0.3-0.7-0.5-0.7-0.9v-0.1c0-0.6,0.3-0.9,0.9-0.9c0.6,0,0.9,0.4,0.9,0.9
		v0.2c0,0.2,0.1,0.3,0.3,0.3h0.7c0.2,0,0.3-0.1,0.3-0.3v-0.2C208.6,64.7,207.7,64.1,206.5,64.1z"/>
	<path class="st0" d="M197.5,67.9c0.7-0.1,0.9-0.6,0.9-1.3v-1c0-0.7-0.5-1.3-1.3-1.3h-0.7h-1.8c-0.2,0-0.3,0.1-0.3,0.3v6.7
		c0,0.2,0.1,0.3,0.3,0.3h0.7c0.2,0,0.3-0.1,0.3-0.3v-2.8h0.8h0.2c0.4,0,0.7,0.3,0.7,0.7v2.2c0,0.2,0.1,0.3,0.3,0.3h0.7
		c0.2,0,0.3-0.1,0.3-0.3v-2C198.5,68.7,198.3,68,197.5,67.9z M197.2,66.7c0,0.4-0.3,0.7-0.7,0.7h-0.2h-0.8v-2.1h0.8h0.2
		c0.4,0,0.7,0.3,0.7,0.7V66.7z"/>
	<path class="st0" d="M228.1,64.3h-0.8c-0.1,0-0.1,0-0.2,0c-0.1,0.1-0.1,0.1-0.1,0.2v0.6c0,0.1,0,0.2,0.1,0.2c0,0,0.1,0,0.2,0h0.4
		c0.1,0,0.2,0.1,0.2,0.2c0,0.2-0.2,0.4-0.4,0.4h-0.1c-0.1,0-0.2,0.1-0.2,0.2v0.1c0,0.1,0.1,0.2,0.2,0.2h0.1c0.4,0,0.9-0.3,0.9-1.1
		v-0.9C228.4,64.4,228.2,64.3,228.1,64.3z"/>
	<path class="st0" d="M220.5,70.5h-2.2v-2.2h1.9c0.2,0,0.3-0.1,0.3-0.3v-0.5c0-0.2-0.1-0.3-0.3-0.3h-1.9v-1.8h2.2
		c0.2,0,0.3-0.1,0.3-0.3v-0.5c0-0.2-0.1-0.3-0.3-0.3h-3.2c-0.2,0-0.3,0.1-0.3,0.3v6.7c0,0.2,0.1,0.3,0.3,0.3h3.2
		c0.2,0,0.3-0.1,0.3-0.3v-0.5C220.8,70.6,220.7,70.5,220.5,70.5z"/>
	<path class="st0" d="M227,70.5H225v-5.9c0-0.2-0.1-0.3-0.3-0.3h-0.7c-0.2,0-0.3,0.1-0.3,0.3v6.7c0,0.2,0.1,0.3,0.3,0.3h2.9
		c0.1,0,0.1,0,0.2-0.1c0.1-0.1,0.1-0.1,0.1-0.2v-0.5c0-0.1,0-0.2-0.1-0.2C227.1,70.5,227,70.5,227,70.5z"/>
	<path class="st0" d="M214.4,64.3h-0.7h-1.8c-0.2,0-0.3,0.1-0.3,0.3v6.7c0,0.2,0.1,0.3,0.3,0.3h1.8h0.7c0.7,0,1.4-0.6,1.4-1.3v-4.6
		C215.8,64.9,215.1,64.3,214.4,64.3z M214.5,69.8c0,0.5-0.3,0.7-0.7,0.7h-0.1h-0.8v-5.2h0.8h0.1c0.4,0,0.7,0.3,0.7,0.7V69.8z"/>
	<path class="st0" d="M237.8,67.7c0.5-0.2,0.7-0.6,0.7-1.1v-1c0-0.7-0.5-1.3-1.3-1.3h-0.6h-1.8c-0.2,0-0.3,0.1-0.3,0.3v6.7
		c0,0.2,0.1,0.3,0.3,0.3h1.8h0.8c0.8,0,1.3-0.7,1.3-1.3V69C238.7,68.5,238.5,67.9,237.8,67.7z M235.7,65.3h0.8h0.1
		c0.4,0,0.7,0.3,0.7,0.7v0.6c0,0.4-0.3,0.7-0.7,0.7h-0.1h-0.8V65.3z M237.4,69.9c0,0.4-0.3,0.7-0.7,0.7h-0.2h-0.8v-2.3h0.8h0.2
		c0.4,0,0.7,0.3,0.7,0.7V69.9z"/>
	<path class="st0" d="M181.1,50.4c-1.2,0-2.1,0.7-2.1,2v3.7c0,1.3,0.9,2,2.1,2c1.2,0,2.1-0.7,2.1-2v-0.2c0-0.2-0.1-0.3-0.3-0.3h-0.7
		c-0.2,0-0.3,0.1-0.3,0.3v0.2c0,0.5-0.4,0.9-0.9,0.9c-0.5,0-0.9-0.4-0.9-0.9v-3.7c0-0.5,0.3-0.9,0.9-0.9c0.5,0,0.9,0.4,0.9,0.9v0.2
		c0,0.2,0.1,0.3,0.3,0.3h0.7c0.2,0,0.3-0.1,0.3-0.3v-0.2C183.3,51.1,182.3,50.4,181.1,50.4z"/>
	<path class="st0" d="M217.7,51.7h0.4c0.1,0,0.2,0.1,0.2,0.2c0,0.2-0.2,0.4-0.4,0.4h-0.1c-0.1,0-0.2,0.1-0.2,0.2v0.1
		c0,0.1,0.1,0.2,0.2,0.2h0.1c0.4,0,0.9-0.4,0.9-1.1v-0.9c0-0.2-0.1-0.3-0.3-0.3h-0.8c-0.2,0-0.3,0.1-0.3,0.3v0.6
		C217.5,51.6,217.6,51.7,217.7,51.7z"/>
	<path class="st0" d="M228.4,54.2c0.7-0.1,0.9-0.6,0.9-1.3v-1c0-0.7-0.5-1.3-1.3-1.3h-0.7h-1.8c-0.2,0-0.3,0.1-0.3,0.3v6.7
		c0,0.2,0.1,0.3,0.3,0.3h0.7c0.2,0,0.3-0.1,0.3-0.3v-2.8h0.8h0.2c0.4,0,0.7,0.3,0.7,0.7v2.2c0,0.2,0.1,0.3,0.3,0.3h0.7
		c0.2,0,0.3-0.1,0.3-0.3v-2C229.5,55,229.3,54.3,228.4,54.2z M228.2,53c0,0.4-0.3,0.7-0.7,0.7h-0.2h-0.8v-2.1h0.8h0.2
		c0.4,0,0.7,0.3,0.7,0.7V53z"/>
	<path class="st0" d="M187.9,56.8h-2.2v-2.2h1.9c0.2,0,0.3-0.1,0.3-0.3v-0.5c0-0.2-0.1-0.3-0.3-0.3h-1.9v-1.8h2.2
		c0.2,0,0.3-0.1,0.3-0.3v-0.5c0-0.2-0.1-0.3-0.3-0.3h-3.2c-0.2,0-0.3,0.1-0.3,0.3v6.7c0,0.2,0.1,0.3,0.3,0.3h3.2
		c0.2,0,0.3-0.1,0.3-0.3v-0.5C188.1,56.9,188,56.8,187.9,56.8z"/>
	<path class="st0" d="M234.5,50.9c0-0.2-0.1-0.3-0.3-0.3h-3.6c-0.2,0-0.3,0.1-0.3,0.3v0.5c0,0.2,0.1,0.3,0.3,0.3h1.2v5.9
		c0,0.2,0.1,0.3,0.3,0.3h0.7c0.2,0,0.3-0.1,0.3-0.3v-5.9h1.2c0.2,0,0.3-0.1,0.3-0.3V50.9z"/>
	<path class="st0" d="M209,56.8h-2.3v-2.2h1.9c0.2,0,0.3-0.1,0.3-0.3v-0.5c0-0.2-0.1-0.3-0.3-0.3h-1.9v-1.8h2.2
		c0.2,0,0.3-0.1,0.3-0.3v-0.5c0-0.2-0.1-0.3-0.3-0.3h-3.2c-0.2,0-0.3,0.1-0.3,0.3v6.7c0,0.2,0.1,0.3,0.3,0.3h3.2
		c0.2,0,0.3-0.1,0.3-0.3v-0.5C209.3,56.9,209.2,56.8,209,56.8z"/>
	<path class="st0" d="M204.4,55.6c0-0.7-0.2-1.3-1-1.4c0.7-0.1,0.9-0.6,0.9-1.3v-1c0-0.7-0.5-1.3-1.3-1.3h-0.7h-1.8
		c-0.2,0-0.3,0.1-0.3,0.3v6.7c0,0.2,0.1,0.3,0.3,0.3h0.7c0.2,0,0.3-0.1,0.3-0.3v-2.8h0.8h0.2c0.4,0,0.7,0.3,0.7,0.7v2.2
		c0,0.2,0.1,0.3,0.3,0.3h0.7c0.2,0,0.3-0.1,0.3-0.3V55.6z M203.1,53c0,0.4-0.3,0.7-0.7,0.7h-0.2h-0.8v-2.1h0.8h0.2
		c0.4,0,0.7,0.3,0.7,0.7V53z"/>
	<path class="st0" d="M224.2,57.7c0,0,0-0.1,0-0.2l-1.6-6.7c0-0.1-0.1-0.2-0.2-0.2h-0.7H221c-0.1,0-0.2,0.1-0.2,0.2l-1.5,6.7
		c0,0.1,0,0.2,0,0.2c0,0.1,0.1,0.2,0.2,0.2h0.8c0.1,0,0.2-0.1,0.2-0.2l0.3-1.3h1h1l0.3,1.3c0,0.1,0.1,0.2,0.2,0.2h0.8
		C224.1,57.9,224.2,57.8,224.2,57.7z M221.7,55.3H221l0.8-3.4l0.7,3.4H221.7z"/>
	<path class="st0" d="M198.8,50.6h-3.6c-0.2,0-0.3,0.1-0.3,0.3v0.5c0,0.2,0.1,0.3,0.3,0.3h1.2v5.9c0,0.2,0.1,0.3,0.3,0.3h0.7
		c0.2,0,0.3-0.1,0.3-0.3v-5.9h1.2c0.2,0,0.3-0.1,0.3-0.3v-0.5C199.1,50.7,199,50.6,198.8,50.6z"/>
	<path class="st0" d="M215.1,50.6h-0.7h-1.8c-0.2,0-0.3,0.1-0.3,0.3v6.7c0,0.2,0.1,0.3,0.3,0.3h1.8h0.7c0.7,0,1.4-0.6,1.4-1.3v-4.6
		C216.5,51.2,215.8,50.6,215.1,50.6z M215.2,56.1c0,0.5-0.3,0.7-0.7,0.7h-0.1h-0.8v-5.2h0.8h0.1c0.4,0,0.7,0.3,0.7,0.7V56.1z"/>
	<path class="st0" d="M193.6,50.6h-0.7c-0.2,0-0.3,0.1-0.3,0.3v4.5l-2-4.5c-0.1-0.1-0.1-0.3-0.3-0.3h-0.8c-0.2,0-0.3,0.1-0.3,0.3
		v6.7c0,0.2,0.1,0.3,0.3,0.3h0.7c0.2,0,0.3-0.1,0.3-0.3V53l2,4.5c0.1,0.1,0.1,0.3,0.3,0.3h0.8c0.2,0,0.3-0.1,0.3-0.3v-6.7
		C193.9,50.7,193.8,50.6,193.6,50.6z"/>
	<path class="st0" d="M95,78.5h-3.3c-0.8,0-1.5,0.7-1.5,1.4v7.3v1v2c0,0.8,0.7,1.4,1.5,1.4H95c0.8,0,1.5-0.7,1.5-1.4v-2v-1v-7.3
		C96.5,79.1,95.8,78.5,95,78.5z"/>
	<path class="st0" d="M50.2,86.2h-9.5v0v-6.3c0-0.8-0.7-1.4-1.5-1.4H36c-0.8,0-1.5,0.7-1.5,1.4v6.3v0.2v3.8c0,0.8,0.7,1.4,1.5,1.4
		h14.2c0.8,0,1.5-0.7,1.5-1.4v-2.5C51.7,86.9,51,86.2,50.2,86.2z"/>
	<path class="st0" d="M74.6,78.5h-3.3c-0.8,0-1.5,0.7-1.5,1.4v1.4h0v1.5c0,2.6-1.7,4.5-4.3,4.5c-2.6,0-4.3-1.9-4.3-4.5V81v-1.1
		c0-0.8-0.7-1.4-1.5-1.4h-3.3c-0.8,0-1.5,0.7-1.5,1.4v1.4v1.5c0,6.4,4.6,9.9,10.5,9.9c5.8,0,10.5-3.6,10.5-9.9V81v-1.1
		C76.1,79.1,75.4,78.5,74.6,78.5z"/>
	<path class="st0" d="M164.6,78.5h-3.3c-0.8,0-1.5,0.7-1.5,1.4v7.3v1v2c0,0.8,0.7,1.4,1.5,1.4h3.3c0.8,0,1.5-0.7,1.5-1.4v-2v-1v-7.3
		C166.1,79.1,165.4,78.5,164.6,78.5z"/>
	<path class="st0" d="M147,78.5h-3.3c-0.8,0-1.5,0.7-1.5,1.4v7.3v1v2c0,0.8,0.7,1.4,1.5,1.4h3.3c0.8,0,1.5-0.7,1.5-1.4v-2v-1v-7.3
		C148.4,79.1,147.8,78.5,147,78.5z"/>
	<path class="st0" d="M133.6,79.4c-0.1-0.5-0.6-0.9-1.2-0.9h-5.1h-7.3H115c-0.6,0-1.1,0.4-1.2,0.9h0l-2.4,10.3
		c-0.1,0.4-0.2,0.8-0.2,0.9c0,0.6,0.5,1.1,1.1,1.1h3.8c0.6,0,1-0.5,1.1-1.1l1.5-6.4h9.8l1.5,6.4c0.2,0.6,0.5,1.1,1.1,1.1h3.8
		c0.7,0,1.1-0.5,1.1-1.1c0-0.1-0.1-0.5-0.2-0.9L133.6,79.4z"/>
	<path class="st0" d="M154.2,50.2h-17.8c-0.8,0-1.4,0.7-1.4,1.5v2.4c0,0.8,0.7,1.5,1.4,1.5h5.8v12.7v0.4v3c0,0.8,0.7,1.4,1.5,1.4
		h3.3c0.8,0,1.5-0.7,1.5-1.4v-3v-0.4V55.5h5.8c0.8,0,1.4-0.7,1.4-1.5v-2.4C155.7,50.9,155,50.2,154.2,50.2z"/>
	<path class="st0" d="M36,73.1h3.3c0.8,0,1.5-0.7,1.5-1.4v-3v-14v-3c0-0.8-0.7-1.4-1.5-1.4H36c-0.8,0-1.5,0.7-1.5,1.4v3v14v3
		C34.5,72.4,35.2,73.1,36,73.1z"/>
	<path class="st0" d="M164.6,50.2h-3.3c-0.8,0-1.5,0.7-1.5,1.4v3v14v3c0,0.8,0.7,1.4,1.5,1.4h3.3c0.8,0,1.5-0.7,1.5-1.4v-3v-14v-3
		C166.1,50.9,165.4,50.2,164.6,50.2z"/>
	<path class="st0" d="M56.6,73.1h3.3c0.8,0,1.5-0.7,1.5-1.4v-3v-2.6v-5.4V59c0-2.6,1.7-4.5,4.3-4.5c2.6,0,4.3,1.9,4.3,4.5v1.7v8v3
		c0,0.8,0.7,1.4,1.5,1.4h3.3c0.8,0,1.5-0.7,1.5-1.4v-3v-2.6v-5.4V59c0-6.4-4.6-9.9-10.5-9.9c-5.8,0-10.5,3.6-10.5,9.9v1.7v5.4v2.6v3
		C55.1,72.4,55.8,73.1,56.6,73.1z"/>
	<path class="st0" d="M103.9,50.2h-3.6h-8.7c-0.8,0-1.5,0.7-1.5,1.4v17.5v0.4v2.2c0,0.8,0.7,1.4,1.5,1.4h1.7h3.1h3.9h2.8h1.6
		c3.4,0,5.7-2.4,5.7-5.9V56.8C110.5,53.1,107.7,50.2,103.9,50.2z M104.2,64.6c0,2.6-1.1,3.3-3.2,3.3h-0.7h-3.9V55.4h3.9h0.7
		c2,0,3.2,0.8,3.2,3.4V64.6z"/>
	<path class="st0" d="M115.4,73.1h3.8c0.6,0,1-0.5,1.1-1.1v0l3.4-15.4l3.4,15.4h0v0c0.2,0.6,0.5,1.1,1.1,1.1h3.8
		c0.7,0,1.1-0.5,1.1-1.1c0-0.1-0.1-0.5-0.2-0.9l-4.6-20c-0.1-0.5-0.6-0.9-1.2-0.9h-3.4h-3.4c-0.6,0-1.1,0.4-1.2,0.9l-4.6,20
		c-0.1,0.4-0.2,0.8-0.2,0.9C114.3,72.6,114.7,73.1,115.4,73.1z"/>
</g>
</svg>
