<?xml version="1.0" standalone="no"?>
<!DOCTYPE svg PUBLIC "-//W3C//DTD SVG 20010904//EN"
 "http://www.w3.org/TR/2001/REC-SVG-20010904/DTD/svg10.dtd">
<svg version="1.0" xmlns="http://www.w3.org/2000/svg"
 width="320.000000pt" height="320.000000pt" viewBox="0 0 320.000000 320.000000"
 preserveAspectRatio="xMidYMid meet">
<metadata>
Created by potrace 1.14, written by Peter Selinger 2001-2017
</metadata>
<g transform="translate(0.000000,320.000000) scale(0.100000,-0.100000)"
fill="#000000" stroke="none">
<path d="M0 1600 l0 -1600 1600 0 1600 0 0 1600 0 1600 -1600 0 -1600 0 0
-1600z m2334 1150 c194 -49 322 -174 374 -363 14 -53 17 -117 17 -460 l0 -399
-28 -24 c-26 -22 -36 -24 -141 -24 -99 0 -117 3 -139 20 l-26 20 -3 393 c-3
429 -4 435 -66 501 -83 88 -251 88 -334 0 -62 -66 -63 -72 -68 -501 -5 -359
-7 -394 -23 -410 -15 -15 -39 -19 -137 -21 -117 -4 -120 -3 -146 23 l-26 26 5
402 c3 338 7 411 21 461 51 178 196 315 383 360 88 22 245 20 337 -4z m-1550
-61 l26 -20 0 -569 c0 -544 -1 -569 -19 -591 -18 -22 -27 -24 -139 -27 -115
-3 -120 -3 -148 21 l-29 25 0 567 0 567 28 24 c26 22 36 24 141 24 99 0 117
-3 140 -21z m1 -1524 c25 -24 25 -26 25 -204 l0 -180 271 -3 271 -3 24 -28
c21 -25 24 -38 24 -116 0 -74 -3 -93 -21 -115 l-20 -26 -420 0 c-400 0 -420 1
-438 19 -29 29 -33 79 -29 369 l3 264 28 24 c26 22 36 24 143 24 109 0 116 -1
139 -25z m1097 5 c25 -19 26 -25 30 -152 3 -111 8 -140 25 -174 27 -51 80 -98
128 -114 60 -20 156 -9 204 23 83 55 110 133 111 314 0 76 2 83 26 102 23 18
41 21 138 21 160 0 156 5 156 -173 0 -159 -12 -222 -60 -317 -60 -119 -198
-221 -346 -256 -93 -22 -285 -15 -364 14 -93 33 -142 62 -206 124 -65 62 -114
146 -134 228 -6 25 -13 107 -17 182 l-6 137 31 30 c30 31 31 31 145 31 99 0
118 -3 139 -20z"/>
</g>
</svg>
