<?xml version="1.0" encoding="utf-8"?>
<!-- Generator: Adobe Illustrator 24.0.0, SVG Export Plug-In . SVG Version: 6.00 Build 0)  -->
<svg version="1.1" id="Capa_1" xmlns="http://www.w3.org/2000/svg" xmlns:xlink="http://www.w3.org/1999/xlink" x="0px" y="0px"
	 viewBox="0 0 214.4 43.6" style="enable-background:new 0 0 214.4 43.6;" xml:space="preserve">
<style type="text/css">
	.st0{fill:#FFFFFF;}
</style>
<g>
	<path class="st0" d="M198.6,21.4h-2.2v-2.2h1.9c0.2,0,0.3-0.1,0.3-0.3v-0.5c0-0.2-0.1-0.3-0.3-0.3h-1.9v-1.8h2.2
		c0.2,0,0.3-0.1,0.3-0.3v-0.5c0-0.2-0.1-0.3-0.3-0.3h-3.2c-0.2,0-0.3,0.1-0.3,0.3v6.7c0,0.2,0.1,0.3,0.3,0.3h3.2
		c0.2,0,0.3-0.1,0.3-0.3v-0.5C198.9,21.5,198.8,21.4,198.6,21.4z"/>
	<path class="st0" d="M168.6,21.4h-2.2v-2.2h1.9c0.2,0,0.3-0.1,0.3-0.3v-0.5c0-0.2-0.1-0.3-0.3-0.3h-1.9v-1.8h2.2
		c0.2,0,0.3-0.1,0.3-0.3v-0.5c0-0.2-0.1-0.3-0.3-0.3h-3.2c-0.2,0-0.3,0.1-0.3,0.3v6.7c0,0.2,0.1,0.3,0.3,0.3h3.2
		c0.2,0,0.3-0.1,0.3-0.3v-0.5C168.9,21.5,168.8,21.4,168.6,21.4z"/>
	<path class="st0" d="M208.5,18.8c0.7-0.1,0.9-0.6,0.9-1.3v-1c0-0.7-0.5-1.3-1.3-1.3h-0.7h-1.8c-0.2,0-0.3,0.1-0.3,0.3v6.7
		c0,0.2,0.1,0.3,0.3,0.3h0.7c0.2,0,0.3-0.1,0.3-0.3v-2.8h0.8h0.2c0.4,0,0.7,0.3,0.7,0.7v2.2c0,0.2,0.1,0.3,0.3,0.3h0.7
		c0.2,0,0.3-0.1,0.3-0.3v-2C209.6,19.6,209.4,18.9,208.5,18.8z M208.3,17.6c0,0.4-0.3,0.7-0.7,0.7h-0.2h-0.8v-2.1h0.8h0.2
		c0.4,0,0.7,0.3,0.7,0.7V17.6z"/>
	<path class="st0" d="M214.2,21.4h-2.3v-2.2h1.9c0.2,0,0.3-0.1,0.3-0.3v-0.5c0-0.2-0.1-0.3-0.3-0.3h-1.9v-1.8h2.2
		c0.2,0,0.3-0.1,0.3-0.3v-0.5c0-0.2-0.1-0.3-0.3-0.3h-3.2c-0.2,0-0.3,0.1-0.3,0.3v6.7c0,0.2,0.1,0.3,0.3,0.3h3.2
		c0.2,0,0.3-0.1,0.3-0.3v-0.5C214.5,21.5,214.3,21.4,214.2,21.4z"/>
	<path class="st0" d="M148.2,15.2h-3.6c-0.2,0-0.3,0.1-0.3,0.3V16c0,0.2,0.1,0.3,0.3,0.3h1.2v5.9c0,0.2,0.1,0.3,0.3,0.3h0.7
		c0.2,0,0.3-0.1,0.3-0.3v-5.9h1.2c0.2,0,0.3-0.1,0.3-0.3v-0.5C148.5,15.3,148.4,15.2,148.2,15.2z"/>
	<path class="st0" d="M157.6,18.8c0.7-0.1,0.9-0.6,0.9-1.3v-1c0-0.7-0.5-1.3-1.3-1.3h-0.7h-1.8c-0.2,0-0.3,0.1-0.3,0.3v6.7
		c0,0.2,0.1,0.3,0.3,0.3h0.7c0.2,0,0.3-0.1,0.3-0.3v-2.8h0.8h0.2c0.4,0,0.7,0.3,0.7,0.7v2.2c0,0.2,0.1,0.3,0.3,0.3h0.7
		c0.2,0,0.3-0.1,0.3-0.3v-2C158.6,19.6,158.5,18.9,157.6,18.8z M157.4,17.6c0,0.4-0.3,0.7-0.7,0.7h-0.2h-0.8v-2.1h0.8h0.2
		c0.4,0,0.7,0.3,0.7,0.7V17.6z"/>
	<path class="st0" d="M153.1,21.4h-2.3v-2.2h1.9c0.2,0,0.3-0.1,0.3-0.3v-0.5c0-0.2-0.1-0.3-0.3-0.3h-1.9v-1.8h2.2
		c0.2,0,0.3-0.1,0.3-0.3v-0.5c0-0.2-0.1-0.3-0.3-0.3h-3.2c-0.2,0-0.3,0.1-0.3,0.3v6.7c0,0.2,0.1,0.3,0.3,0.3h3.2
		c0.2,0,0.3-0.1,0.3-0.3v-0.5C153.3,21.5,153.2,21.4,153.1,21.4z"/>
	<path class="st0" d="M172,15c-1.3,0-2.1,0.8-2.1,2.1c0,0.6,0.1,1.2,0.8,1.6l1.6,1.1c0.4,0.2,0.6,0.4,0.6,0.8v0.2
		c0,0.6-0.3,0.9-0.9,0.9c-0.5,0-0.9-0.4-0.9-0.9v-0.4c0-0.2-0.1-0.3-0.3-0.3h-0.7c-0.2,0-0.3,0.1-0.3,0.3v0.4c0,1.3,0.9,2,2.1,2
		c1.3,0,2.1-0.7,2.1-2c0-1-0.1-1.4-0.9-1.9l-1.3-0.9c-0.5-0.3-0.7-0.5-0.7-0.9V17c0-0.6,0.3-0.9,0.9-0.9c0.6,0,0.9,0.4,0.9,0.9v0.2
		c0,0.2,0.1,0.3,0.3,0.3h0.7c0.2,0,0.3-0.1,0.3-0.3V17C174.1,15.6,173.2,15,172,15z"/>
	<path class="st0" d="M163,18.8c0.7-0.1,0.9-0.6,0.9-1.3v-1c0-0.7-0.5-1.3-1.3-1.3h-0.7h-1.8c-0.2,0-0.3,0.1-0.3,0.3v6.7
		c0,0.2,0.1,0.3,0.3,0.3h0.7c0.2,0,0.3-0.1,0.3-0.3v-2.8h0.8h0.2c0.4,0,0.7,0.3,0.7,0.7v2.2c0,0.2,0.1,0.3,0.3,0.3h0.7
		c0.2,0,0.3-0.1,0.3-0.3v-2C164,19.6,163.8,18.9,163,18.8z M162.7,17.6c0,0.4-0.3,0.7-0.7,0.7h-0.2H161v-2.1h0.8h0.2
		c0.4,0,0.7,0.3,0.7,0.7V17.6z"/>
	<path class="st0" d="M193.6,15.2h-0.8c-0.1,0-0.1,0-0.2,0c-0.1,0.1-0.1,0.1-0.1,0.2V16c0,0.1,0,0.2,0.1,0.2c0,0,0.1,0,0.2,0h0.4
		c0.1,0,0.2,0.1,0.2,0.2c0,0.2-0.2,0.4-0.4,0.4h-0.1c-0.1,0-0.2,0.1-0.2,0.2v0.1c0,0.1,0.1,0.2,0.2,0.2h0.1c0.4,0,0.9-0.3,0.9-1.1
		v-0.9C193.9,15.3,193.7,15.2,193.6,15.2z"/>
	<path class="st0" d="M186,21.4h-2.2v-2.2h1.9c0.2,0,0.3-0.1,0.3-0.3v-0.5c0-0.2-0.1-0.3-0.3-0.3h-1.9v-1.8h2.2
		c0.2,0,0.3-0.1,0.3-0.3v-0.5c0-0.2-0.1-0.3-0.3-0.3h-3.2c-0.2,0-0.3,0.1-0.3,0.3v6.7c0,0.2,0.1,0.3,0.3,0.3h3.2
		c0.2,0,0.3-0.1,0.3-0.3v-0.5C186.3,21.5,186.2,21.4,186,21.4z"/>
	<path class="st0" d="M192.5,21.4h-2v-5.9c0-0.2-0.1-0.3-0.3-0.3h-0.7c-0.2,0-0.3,0.1-0.3,0.3v6.7c0,0.2,0.1,0.3,0.3,0.3h2.9
		c0.1,0,0.1,0,0.2-0.1c0.1-0.1,0.1-0.1,0.1-0.2v-0.5c0-0.1,0-0.2-0.1-0.2C192.6,21.4,192.5,21.4,192.5,21.4z"/>
	<path class="st0" d="M179.9,15.2h-0.7h-1.8c-0.2,0-0.3,0.1-0.3,0.3v6.7c0,0.2,0.1,0.3,0.3,0.3h1.8h0.7c0.7,0,1.4-0.6,1.4-1.3v-4.6
		C181.3,15.8,180.6,15.2,179.9,15.2z M180,20.7c0,0.5-0.3,0.7-0.7,0.7h-0.1h-0.8v-5.2h0.8h0.1c0.4,0,0.7,0.3,0.7,0.7V20.7z"/>
	<path class="st0" d="M203.3,18.6c0.5-0.2,0.7-0.6,0.7-1.1v-1c0-0.7-0.5-1.3-1.3-1.3h-0.6h-1.8c-0.2,0-0.3,0.1-0.3,0.3v6.7
		c0,0.2,0.1,0.3,0.3,0.3h1.8h0.8c0.8,0,1.3-0.7,1.3-1.3v-1.3C204.2,19.4,204,18.8,203.3,18.6z M201.2,16.2h0.8h0.1
		c0.4,0,0.7,0.3,0.7,0.7v0.6c0,0.4-0.3,0.7-0.7,0.7H202h-0.8V16.2z M202.9,20.8c0,0.4-0.3,0.7-0.7,0.7H202h-0.8v-2.3h0.8h0.2
		c0.4,0,0.7,0.3,0.7,0.7V20.8z"/>
	<path class="st0" d="M146.6,1.3c-1.2,0-2.1,0.7-2.1,2V7c0,1.3,0.9,2,2.1,2c1.2,0,2.1-0.7,2.1-2V6.8c0-0.2-0.1-0.3-0.3-0.3h-0.7
		c-0.2,0-0.3,0.1-0.3,0.3V7c0,0.5-0.4,0.9-0.9,0.9s-0.9-0.4-0.9-0.9V3.3c0-0.5,0.3-0.9,0.9-0.9c0.5,0,0.9,0.4,0.9,0.9v0.2
		c0,0.2,0.1,0.3,0.3,0.3h0.7c0.2,0,0.3-0.1,0.3-0.3V3.3C148.8,2,147.8,1.3,146.6,1.3z"/>
	<path class="st0" d="M183.2,2.6h0.4c0.1,0,0.2,0.1,0.2,0.2c0,0.2-0.2,0.4-0.4,0.4h-0.1c-0.1,0-0.2,0.1-0.2,0.2v0.1
		c0,0.1,0.1,0.2,0.2,0.2h0.1c0.4,0,0.9-0.4,0.9-1.1V1.7c0-0.2-0.1-0.3-0.3-0.3h-0.8c-0.2,0-0.3,0.1-0.3,0.3v0.6
		C183,2.5,183.1,2.6,183.2,2.6z"/>
	<path class="st0" d="M193.9,5.1c0.7-0.1,0.9-0.6,0.9-1.3v-1c0-0.7-0.5-1.3-1.3-1.3h-0.7H191c-0.2,0-0.3,0.1-0.3,0.3v6.7
		c0,0.2,0.1,0.3,0.3,0.3h0.7c0.2,0,0.3-0.1,0.3-0.3V5.7h0.8h0.2c0.4,0,0.7,0.3,0.7,0.7v2.2c0,0.2,0.1,0.3,0.3,0.3h0.7
		c0.2,0,0.3-0.1,0.3-0.3v-2C195,5.9,194.8,5.2,193.9,5.1z M193.7,3.9c0,0.4-0.3,0.7-0.7,0.7h-0.2H192V2.5h0.8h0.2
		c0.4,0,0.7,0.3,0.7,0.7V3.9z"/>
	<path class="st0" d="M153.4,7.7h-2.2V5.5h1.9c0.2,0,0.3-0.1,0.3-0.3V4.7c0-0.2-0.1-0.3-0.3-0.3h-1.9V2.6h2.2c0.2,0,0.3-0.1,0.3-0.3
		V1.8c0-0.2-0.1-0.3-0.3-0.3h-3.2c-0.2,0-0.3,0.1-0.3,0.3v6.7c0,0.2,0.1,0.3,0.3,0.3h3.2c0.2,0,0.3-0.1,0.3-0.3V8
		C153.6,7.8,153.5,7.7,153.4,7.7z"/>
	<path class="st0" d="M200,1.8c0-0.2-0.1-0.3-0.3-0.3h-3.6c-0.2,0-0.3,0.1-0.3,0.3v0.5c0,0.2,0.1,0.3,0.3,0.3h1.2v5.9
		c0,0.2,0.1,0.3,0.3,0.3h0.7c0.2,0,0.3-0.1,0.3-0.3V2.6h1.2c0.2,0,0.3-0.1,0.3-0.3L200,1.8L200,1.8z"/>
	<path class="st0" d="M174.5,7.7h-2.3V5.5h1.9c0.2,0,0.3-0.1,0.3-0.3V4.7c0-0.2-0.1-0.3-0.3-0.3h-1.9V2.6h2.2c0.2,0,0.3-0.1,0.3-0.3
		V1.8c0-0.2-0.1-0.3-0.3-0.3h-3.2c-0.2,0-0.3,0.1-0.3,0.3v6.7c0,0.2,0.1,0.3,0.3,0.3h3.2c0.2,0,0.3-0.1,0.3-0.3V8
		C174.8,7.8,174.7,7.7,174.5,7.7z"/>
	<path class="st0" d="M169.9,6.5c0-0.7-0.2-1.3-1-1.4c0.7-0.1,0.9-0.6,0.9-1.3v-1c0-0.7-0.5-1.3-1.3-1.3h-0.7H166
		c-0.2,0-0.3,0.1-0.3,0.3v6.7c0,0.2,0.1,0.3,0.3,0.3h0.7c0.2,0,0.3-0.1,0.3-0.3V5.7h0.8h0.2c0.4,0,0.7,0.3,0.7,0.7v2.2
		c0,0.2,0.1,0.3,0.3,0.3h0.7c0.2,0,0.3-0.1,0.3-0.3L169.9,6.5L169.9,6.5z M168.6,3.9c0,0.4-0.3,0.7-0.7,0.7h-0.2h-0.8V2.5h0.8h0.2
		c0.4,0,0.7,0.3,0.7,0.7V3.9z"/>
	<path class="st0" d="M189.7,8.6c0,0,0-0.1,0-0.2l-1.6-6.7c0-0.1-0.1-0.2-0.2-0.2h-0.7h-0.7c-0.1,0-0.2,0.1-0.2,0.2l-1.5,6.7
		c0,0.1,0,0.2,0,0.2c0,0.1,0.1,0.2,0.2,0.2h0.8c0.1,0,0.2-0.1,0.2-0.2l0.3-1.3h1h1l0.3,1.3c0,0.1,0.1,0.2,0.2,0.2h0.8
		C189.6,8.8,189.7,8.7,189.7,8.6z M187.2,6.2h-0.7l0.8-3.4l0.7,3.4H187.2z"/>
	<path class="st0" d="M164.3,1.5h-3.6c-0.2,0-0.3,0.1-0.3,0.3v0.5c0,0.2,0.1,0.3,0.3,0.3h1.2v5.9c0,0.2,0.1,0.3,0.3,0.3h0.7
		c0.2,0,0.3-0.1,0.3-0.3V2.6h1.2c0.2,0,0.3-0.1,0.3-0.3V1.8C164.6,1.6,164.5,1.5,164.3,1.5z"/>
	<path class="st0" d="M180.6,1.5h-0.7h-1.8c-0.2,0-0.3,0.1-0.3,0.3v6.7c0,0.2,0.1,0.3,0.3,0.3h1.8h0.7c0.7,0,1.4-0.6,1.4-1.3V2.9
		C182,2.1,181.3,1.5,180.6,1.5z M180.7,7c0,0.5-0.3,0.7-0.7,0.7h-0.1h-0.8V2.5h0.8h0.1c0.4,0,0.7,0.3,0.7,0.7V7z"/>
	<path class="st0" d="M159.1,1.5h-0.7c-0.2,0-0.3,0.1-0.3,0.3v4.5l-2-4.5c-0.1-0.1-0.1-0.3-0.3-0.3H155c-0.2,0-0.3,0.1-0.3,0.3v6.7
		c0,0.2,0.1,0.3,0.3,0.3h0.7c0.2,0,0.3-0.1,0.3-0.3V3.9l2,4.5c0.1,0.1,0.1,0.3,0.3,0.3h0.8c0.2,0,0.3-0.1,0.3-0.3V1.7
		C159.4,1.6,159.3,1.5,159.1,1.5z"/>
	<path class="st0" d="M60.5,29.4h-3.3c-0.8,0-1.5,0.7-1.5,1.4v7.3v1v2c0,0.8,0.7,1.4,1.5,1.4h3.3c0.8,0,1.5-0.7,1.5-1.4v-2v-1v-7.3
		C62,30,61.3,29.4,60.5,29.4z"/>
	<path class="st0" d="M15.7,37.1H6.2l0,0v-6.3c0-0.8-0.7-1.4-1.5-1.4H1.5c-0.8,0-1.5,0.7-1.5,1.4v6.3v0.2v3.8c0,0.8,0.7,1.4,1.5,1.4
		h14.2c0.8,0,1.5-0.7,1.5-1.4v-2.5C17.2,37.8,16.5,37.1,15.7,37.1z"/>
	<path class="st0" d="M40.1,29.4h-3.3c-0.8,0-1.5,0.7-1.5,1.4v1.4l0,0v1.5c0,2.6-1.7,4.5-4.3,4.5c-2.6,0-4.3-1.9-4.3-4.5v-1.8v-1.1
		c0-0.8-0.7-1.4-1.5-1.4h-3.3c-0.8,0-1.5,0.7-1.5,1.4v1.4v1.5c0,6.4,4.6,9.9,10.5,9.9c5.8,0,10.5-3.6,10.5-9.9v-1.8v-1.1
		C41.6,30,40.9,29.4,40.1,29.4z"/>
	<path class="st0" d="M130.1,29.4h-3.3c-0.8,0-1.5,0.7-1.5,1.4v7.3v1v2c0,0.8,0.7,1.4,1.5,1.4h3.3c0.8,0,1.5-0.7,1.5-1.4v-2v-1v-7.3
		C131.6,30,130.9,29.4,130.1,29.4z"/>
	<path class="st0" d="M112.5,29.4h-3.3c-0.8,0-1.5,0.7-1.5,1.4v7.3v1v2c0,0.8,0.7,1.4,1.5,1.4h3.3c0.8,0,1.5-0.7,1.5-1.4v-2v-1v-7.3
		C113.9,30,113.3,29.4,112.5,29.4z"/>
	<path class="st0" d="M99.1,30.3c-0.1-0.5-0.6-0.9-1.2-0.9h-5.1h-7.3h-5c-0.6,0-1.1,0.4-1.2,0.9l0,0l-2.4,10.3
		c-0.1,0.4-0.2,0.8-0.2,0.9c0,0.6,0.5,1.1,1.1,1.1h3.8c0.6,0,1-0.5,1.1-1.1l1.5-6.4H94l1.5,6.4c0.2,0.6,0.5,1.1,1.1,1.1h3.8
		c0.7,0,1.1-0.5,1.1-1.1c0-0.1-0.1-0.5-0.2-0.9L99.1,30.3z"/>
	<path class="st0" d="M119.7,1.1h-17.8c-0.8,0-1.4,0.7-1.4,1.5V5c0,0.8,0.7,1.5,1.4,1.5h5.8v12.7v0.4v3c0,0.8,0.7,1.4,1.5,1.4h3.3
		c0.8,0,1.5-0.7,1.5-1.4v-3v-0.4V6.4h5.8c0.8,0,1.4-0.7,1.4-1.5V2.5C121.2,1.8,120.5,1.1,119.7,1.1z"/>
	<path class="st0" d="M1.5,24h3.3c0.8,0,1.5-0.7,1.5-1.4v-3v-14v-3c0-0.8-0.7-1.4-1.5-1.4H1.5C0.7,1.2,0,1.9,0,2.6v3v14v3
		C0,23.3,0.7,24,1.5,24z"/>
	<path class="st0" d="M130.1,1.1h-3.3c-0.8,0-1.5,0.7-1.5,1.4v3v14v3c0,0.8,0.7,1.4,1.5,1.4h3.3c0.8,0,1.5-0.7,1.5-1.4v-3v-14v-3
		C131.6,1.8,130.9,1.1,130.1,1.1z"/>
	<path class="st0" d="M22.1,24h3.3c0.8,0,1.5-0.7,1.5-1.4v-3V17v-5.4V9.9c0-2.6,1.7-4.5,4.3-4.5s4.3,1.9,4.3,4.5v1.7v8v3
		c0,0.8,0.7,1.4,1.5,1.4h3.3c0.8,0,1.5-0.7,1.5-1.4v-3V17v-5.4V9.9c0-6.4-4.6-9.9-10.5-9.9c-5.8,0-10.5,3.6-10.5,9.9v1.7V17v2.6v3
		C20.6,23.3,21.3,24,22.1,24z"/>
	<path class="st0" d="M69.4,1.1h-3.6h-8.7c-0.8,0-1.5,0.7-1.5,1.4V20v0.4v2.2c0,0.8,0.7,1.4,1.5,1.4h1.7h3.1h3.9h2.8h1.6
		c3.4,0,5.7-2.4,5.7-5.9V7.7C76,4,73.2,1.1,69.4,1.1z M69.7,15.5c0,2.6-1.1,3.3-3.2,3.3h-0.7h-3.9V6.3h3.9h0.7c2,0,3.2,0.8,3.2,3.4
		V15.5z"/>
	<path class="st0" d="M80.9,24h3.8c0.6,0,1-0.5,1.1-1.1l0,0l3.4-15.4l3.4,15.4l0,0l0,0c0.2,0.6,0.5,1.1,1.1,1.1h3.8
		c0.7,0,1.1-0.5,1.1-1.1c0-0.1-0.1-0.5-0.2-0.9L93.8,2c-0.1-0.5-0.6-0.9-1.2-0.9h-3.4h-3.4c-0.6,0-1.1,0.4-1.2,0.9L80,22
		c-0.1,0.4-0.2,0.8-0.2,0.9C79.8,23.5,80.2,24,80.9,24z"/>
</g>
</svg>
