<svg xmlns="http://www.w3.org/2000/svg" viewBox="0 0 39.5 39.5"><defs><style>.cls-1{fill:none;stroke:#78838C;stroke-miterlimit:10;stroke-width:1.5px;}.cls-2{fill:#78838C;}</style></defs><title>TW</title><g id="Capa_2" data-name="Capa 2"><g id="Capa_1-2" data-name="Capa 1"><path class="cls-1" d="M19.75,38.75h0a19,19,0,0,1-19-19h0a19,19,0,0,1,19-19h0a19,19,0,0,1,19,19h0A19,19,0,0,1,19.75,38.75Z"/><path class="cls-2" d="M9.6,26.09A11.84,11.84,0,0,0,27.81,15.58a8,8,0,0,0,2.07-2.15,8.24,8.24,0,0,1-2.39.66,4.16,4.16,0,0,0,1.83-2.31,7.84,7.84,0,0,1-2.64,1,4.17,4.17,0,0,0-7.09,3.8A11.76,11.76,0,0,1,11,12.23a4.16,4.16,0,0,0,1.28,5.56,4.27,4.27,0,0,1-1.88-.52,4.16,4.16,0,0,0,3.33,4.14,4.26,4.26,0,0,1-1.88.07,4.18,4.18,0,0,0,3.88,2.89A8.39,8.39,0,0,1,9.6,26.09Z"/></g></g></svg>